<svg width="458" height="166" viewBox="0 0 458 166" fill="none" xmlns="http://www.w3.org/2000/svg">
<path d="M84.5586 164.764L78.1385 146.983L77.6911 145.43V143.75L78.1385 141.082L78.9377 139.298L80.3308 138.287L82.3215 137.16L84.5586 136.579L88.7327 136.113H92.8573L101.313 136.579L109.142 137.666L118.652 139.654L127.557 141.791L131.475 142.946L135.749 144.284L140.735 146.421L144.831 149.257L158.544 161.592L153.914 154.791L150.886 149.805L147.974 144.284L147.035 141.256V138.287L148.393 130.927L148.571 127.365L148.393 125.406L147.974 123.69L146.612 120.598L144.686 117.478L139.989 113.286L136.283 111.159L132.721 109.556L128.803 107.954L125.113 107.074L117.049 105.104L109.142 103.813L100.665 102.255L92.3875 101.483L83.39 100.863H75.1636H63.7331L52.6156 101.483L41.0286 103.192L29.4413 105.987L26.9359 99.9309L21.4557 97.4462H15.349L10.729 100.83L9.30424 103.679L5.79728 108.488L7.52333 111.693L8.45938 114.528L10.3728 115.255L11.2632 115.611L12.2175 115.615L11.6194 115.79L11.0851 116.146L10.1947 116.858L8.45938 118.41L6.63288 120.064L5.38624 121.845L4.85197 122.557L4.49579 123.269L4.13961 123.982L3.91842 124.777L3.60534 125.585L3.42725 126.297V127.187L3.60534 128.193L4.49579 130.037L5.03006 130.927L5.79728 131.765L6.63288 132.53L7.52333 133.242L8.59188 133.955L9.55535 134.405L11.7975 135.736L14.2908 136.804L16.7841 137.873L19.4554 138.585L24.7981 140.188L30.2242 141.703L36.1959 143.037L42.1246 143.877L53.6488 144.996L58.8135 145.174H61.4848L64.2029 145.43L66.6495 146.065L69.3208 147.312L71.8141 148.558L74.224 150.71L84.5586 164.764Z" fill="#AEC5CE" stroke="#AEC5CE"/>
<path d="M22.5275 115.65C28.8376 111.688 31.4677 104.518 28.402 99.6349C25.3363 94.7516 17.7357 94.0042 11.4255 97.9657C5.11538 101.927 2.48525 109.097 5.55097 113.981C8.61669 118.864 16.2173 119.611 22.5275 115.65Z" fill="#AEC5CE"/>
<path d="M132.659 57.9633C137.4 57.5931 140.788 51.451 140.226 44.2447C139.663 37.0384 135.363 31.4966 130.621 31.8669C125.88 32.2371 122.492 38.3791 123.054 45.5854C123.617 52.7918 127.917 58.3335 132.659 57.9633Z" fill="#7F2941"/>
<path d="M78.9375 22.5274C97.2983 39.9144 107.076 52.0904 125.953 67.0501C140.409 78.5052 152.984 43.1788 160.002 19.4418C160.846 16.5072 161.622 13.8031 162.304 11.4199C163.341 7.7145 164.173 4.646 164.777 2.58121C166.034 -1.71327 164.796 2.70944 162.304 11.4199C161.623 13.854 160.853 16.5624 160.002 19.4418C153.44 42.2527 142.741 78.9761 139.845 86.9962C135.579 98.8072 155.188 152.323 158.309 160.692C158.578 161.406 158.722 161.794 158.722 161.794C158.722 161.794 158.576 161.409 158.309 160.692C155.15 152.299 134.851 98.8339 130.584 99.8188C126.823 100.686 99.0977 143.14 88.8155 159.057C87.5233 161.192 86.2453 163.183 84.9926 165C84.9926 165 86.4376 162.738 88.8155 159.057C102.32 136.747 117.329 98.8528 120.255 82.7221C123.46 65.048 97.6495 45.9164 78.9375 22.5274Z" fill="#7F2941"/>
<path d="M78.9375 22.5273C97.2983 39.9143 107.076 52.0904 125.953 67.05C144.831 82.0096 160.503 17.1846 164.777 2.58112C169.051 -12.0223 144.475 74.1736 139.845 86.9961C135.214 99.8187 158.722 161.794 158.722 161.794C158.722 161.794 135.214 98.7501 130.584 99.8187C125.953 100.887 84.9926 165 84.9926 165C99.3378 144.197 117.049 100.396 120.255 82.722C123.46 65.0479 97.6495 45.9163 78.9375 22.5273Z" stroke="#7F2941"/>
<path d="M192.926 76.3691C192.038 76.3691 191.267 76.2319 190.614 75.9577C189.961 75.6834 189.426 75.3112 189.008 74.841C188.59 74.3577 188.276 73.7896 188.067 73.1367C187.871 72.4838 187.773 71.7786 187.773 71.021V62.4994H189.674V70.8055C189.674 72.1636 189.974 73.1499 190.575 73.7636C191.176 74.3773 191.959 74.6843 192.926 74.6843C193.409 74.6843 193.846 74.6124 194.238 74.4688C194.643 74.3121 194.989 74.077 195.276 73.7636C195.564 73.4502 195.786 73.0519 195.942 72.5686C196.099 72.0724 196.178 71.4847 196.178 70.8055V62.4994H198.078V71.021C198.078 71.7786 197.973 72.4838 197.764 73.1367C197.568 73.7896 197.255 74.3577 196.824 74.841C196.406 75.3112 195.871 75.6834 195.218 75.9577C194.578 76.2319 193.814 76.3691 192.926 76.3691ZM209.672 64.0078C209.372 64.3472 209.019 64.7586 208.614 65.2419C208.223 65.7121 207.805 66.241 207.361 66.8287C206.917 67.4033 206.459 68.0173 205.989 68.6702C205.519 69.3103 205.056 69.9631 204.598 70.6292C204.155 71.2821 203.73 71.9353 203.325 72.5882C202.92 73.2411 202.555 73.8615 202.228 74.4492H209.868V76.0752H200.014V74.8019C200.289 74.2793 200.609 73.7048 200.974 73.0779C201.353 72.4511 201.751 71.811 202.169 71.1581C202.6 70.5052 203.044 69.8456 203.501 69.1795C203.959 68.5135 204.409 67.8734 204.853 67.2597C205.31 66.646 205.748 66.0711 206.166 65.5358C206.597 65.0005 206.988 64.5303 207.341 64.1253H200.367V62.4994H209.672V64.0078ZM215.946 76.1927C215.672 76.1927 215.371 76.1863 215.045 76.1732C214.731 76.16 214.411 76.1404 214.085 76.1144C213.771 76.0884 213.458 76.0556 213.145 76.0164C212.831 75.9773 212.544 75.9249 212.283 75.8597V62.6953C212.544 62.6301 212.831 62.5777 213.145 62.5385C213.458 62.4993 213.771 62.4666 214.085 62.4406C214.411 62.4146 214.731 62.395 215.045 62.3818C215.358 62.3686 215.652 62.3622 215.926 62.3622C216.71 62.3622 217.441 62.421 218.12 62.5385C218.813 62.6561 219.407 62.8584 219.903 63.1458C220.412 63.4201 220.811 63.7859 221.098 64.2429C221.385 64.6998 221.529 65.2615 221.529 65.9276C221.529 66.672 221.353 67.2857 221 67.7691C220.648 68.2392 220.177 68.5918 219.59 68.8269C220.386 69.062 221.02 69.4342 221.49 69.9435C221.96 70.4529 222.195 71.1713 222.195 72.0984C222.195 73.4566 221.692 74.482 220.687 75.1741C219.694 75.8533 218.114 76.1927 215.946 76.1927ZM214.163 69.7476V74.5276C214.307 74.5408 214.477 74.5536 214.673 74.5668C214.842 74.58 215.038 74.5928 215.26 74.606C215.495 74.606 215.763 74.606 216.064 74.606C216.625 74.606 217.154 74.5732 217.65 74.508C218.16 74.4297 218.603 74.2989 218.982 74.1162C219.361 73.9335 219.661 73.6788 219.884 73.3522C220.119 73.0256 220.236 72.6142 220.236 72.118C220.236 71.6739 220.151 71.3017 219.981 71.0014C219.812 70.688 219.563 70.4397 219.237 70.257C218.924 70.0743 218.545 69.9435 218.101 69.8652C217.657 69.7868 217.161 69.7476 216.612 69.7476H214.163ZM214.163 68.2196H216.161C216.632 68.2196 217.075 68.1869 217.494 68.1217C217.911 68.0565 218.27 67.939 218.571 67.7691C218.884 67.5992 219.126 67.3773 219.296 67.103C219.479 66.8287 219.57 66.4825 219.57 66.0647C219.57 65.6729 219.479 65.3463 219.296 65.0852C219.113 64.811 218.858 64.5955 218.532 64.4388C218.218 64.2689 217.846 64.1449 217.415 64.0666C216.984 63.9882 216.527 63.949 216.044 63.949C215.561 63.949 215.182 63.9554 214.908 63.9686C214.633 63.9818 214.385 64.0014 214.163 64.0274V68.2196ZM224.87 76.0752V62.4994H233.157V64.1253H226.771V68.1609H232.452V69.7476H226.771V74.4492H233.647V76.0752H224.87ZM246.112 62.4994C245.707 62.9435 245.25 63.4397 244.74 63.9882C244.231 64.5235 243.696 65.0788 243.134 65.6533C242.585 66.215 242.037 66.77 241.488 67.3185C240.94 67.867 240.424 68.3763 239.941 68.8465C240.503 69.2383 241.097 69.7216 241.724 70.2962C242.35 70.8707 242.964 71.4847 243.565 72.1376C244.166 72.7905 244.728 73.4566 245.25 74.1358C245.785 74.815 246.229 75.4615 246.582 76.0752H244.349C243.957 75.4615 243.506 74.8474 242.997 74.2337C242.488 73.6069 241.946 73.0128 241.371 72.4511C240.81 71.8765 240.235 71.3476 239.647 70.8643C239.072 70.3809 238.511 69.9695 237.962 69.6301V76.0752H236.062V62.4994H237.962V68.4939C238.42 68.0629 238.922 67.5796 239.471 67.0442C240.019 66.4957 240.561 65.9472 241.097 65.3987C241.632 64.8501 242.135 64.3276 242.605 63.8315C243.088 63.3221 243.493 62.878 243.82 62.4994H246.112ZM248.382 62.4994H250.283V76.0752H248.382V62.4994ZM256.798 74.7235C258.783 74.7235 259.775 74.0443 259.775 72.6861C259.775 72.2683 259.684 71.9157 259.501 71.6283C259.331 71.328 259.096 71.0734 258.796 70.8643C258.495 70.6424 258.149 70.4529 257.757 70.2962C257.378 70.1394 256.974 69.9827 256.543 69.826C256.046 69.6561 255.576 69.467 255.132 69.2579C254.688 69.036 254.303 68.7813 253.977 68.4939C253.65 68.1936 253.389 67.841 253.193 67.436C253.01 67.031 252.919 66.5413 252.919 65.9668C252.919 64.7782 253.323 63.8511 254.133 63.185C254.943 62.5189 256.059 62.1859 257.483 62.1859C258.306 62.1859 259.05 62.2774 259.716 62.4602C260.395 62.6301 260.892 62.8192 261.205 63.0283L260.598 64.5759C260.324 64.406 259.912 64.2429 259.364 64.0861C258.828 63.9162 258.201 63.8315 257.483 63.8315C257.117 63.8315 256.778 63.8706 256.464 63.949C256.151 64.0274 255.877 64.1449 255.642 64.3016C255.407 64.4584 255.217 64.6607 255.074 64.9089C254.943 65.144 254.878 65.4247 254.878 65.7513C254.878 66.1171 254.949 66.4238 255.093 66.672C255.237 66.9203 255.439 67.1422 255.7 67.3381C255.962 67.5208 256.262 67.6907 256.602 67.8474C256.954 68.0041 257.339 68.1609 257.757 68.3176C258.345 68.5527 258.88 68.7877 259.364 69.0228C259.86 69.2579 260.285 69.5386 260.637 69.8652C261.003 70.1918 261.284 70.5836 261.479 71.0406C261.675 71.4847 261.773 72.0265 261.773 72.6666C261.773 73.8551 261.336 74.7691 260.461 75.4092C259.599 76.0492 258.378 76.3691 256.798 76.3691C256.262 76.3691 255.766 76.3299 255.309 76.2515C254.865 76.1863 254.466 76.108 254.114 76.0164C253.761 75.9121 253.454 75.8074 253.193 75.703C252.945 75.5855 252.749 75.4875 252.605 75.4092L253.173 73.842C253.474 74.0119 253.931 74.201 254.545 74.4101C255.158 74.6191 255.909 74.7235 256.798 74.7235ZM273.14 62.4994V64.1449H268.869V76.0752H266.969V64.1449H262.698V62.4994H273.14ZM282.954 76.0752C282.732 75.4875 282.523 74.913 282.327 74.3513C282.131 73.7768 281.929 73.1955 281.72 72.6078H275.569L274.334 76.0752H272.356C272.878 74.6387 273.368 73.313 273.825 72.0984C274.282 70.8707 274.726 69.7085 275.157 68.6114C275.601 67.5144 276.039 66.4697 276.47 65.477C276.901 64.4715 277.351 63.4789 277.821 62.4994H279.565C280.035 63.4789 280.486 64.4715 280.917 65.477C281.348 66.4697 281.779 67.5144 282.21 68.6114C282.654 69.7085 283.104 70.8707 283.561 72.0984C284.018 73.313 284.508 74.6387 285.031 76.0752H282.954ZM281.171 71.0406C280.754 69.9044 280.335 68.8073 279.918 67.7495C279.513 66.6784 279.088 65.6533 278.644 64.6738C278.187 65.6533 277.75 66.6784 277.332 67.7495C276.927 68.8073 276.522 69.9044 276.117 71.0406H281.171ZM296.179 76.0752C295.892 75.5919 295.559 75.0501 295.18 74.4492C294.814 73.8484 294.416 73.2282 293.985 72.5882C293.554 71.9353 293.103 71.2757 292.633 70.6096C292.176 69.9435 291.719 69.3035 291.262 68.6898C290.805 68.0629 290.361 67.4752 289.93 66.9267C289.499 66.3782 289.1 65.8948 288.735 65.477V76.0752H286.874V62.4994H288.382C288.996 63.1522 289.649 63.9162 290.341 64.7914C291.046 65.6533 291.739 66.5481 292.418 67.4752C293.11 68.3895 293.756 69.2907 294.357 70.1786C294.971 71.0666 295.487 71.857 295.905 72.549V62.4994H297.766V76.0752H296.179ZM314.73 76.0752C314.508 75.4875 314.299 74.913 314.104 74.3513C313.908 73.7768 313.705 73.1955 313.496 72.6078H307.345L306.111 76.0752H304.132C304.654 74.6387 305.144 73.313 305.601 72.0984C306.058 70.8707 306.503 69.7085 306.934 68.6114C307.377 67.5144 307.815 66.4697 308.246 65.477C308.677 64.4715 309.128 63.4789 309.598 62.4994H311.341C311.812 63.4789 312.262 64.4715 312.693 65.477C313.124 66.4697 313.555 67.5144 313.986 68.6114C314.43 69.7085 314.88 70.8707 315.338 72.0984C315.795 73.313 316.284 74.6387 316.807 76.0752H314.73ZM312.948 71.0406C312.53 69.9044 312.112 68.8073 311.694 67.7495C311.289 66.6784 310.864 65.6533 310.421 64.6738C309.963 65.6533 309.526 66.6784 309.108 67.7495C308.703 68.8073 308.298 69.9044 307.894 71.0406H312.948ZM322.109 74.7235C324.097 74.7235 325.087 74.0443 325.087 72.6861C325.087 72.2683 324.998 71.9157 324.813 71.6283C324.645 71.328 324.41 71.0734 324.108 70.8643C323.808 70.6424 323.463 70.4529 323.071 70.2962C322.69 70.1394 322.288 69.9827 321.857 69.826C321.358 69.6561 320.888 69.467 320.446 69.2579C320.001 69.036 319.616 68.7813 319.288 68.4939C318.964 68.1936 318.701 67.841 318.505 67.436C318.323 67.031 318.231 66.5413 318.231 65.9668C318.231 64.7782 318.637 63.8511 319.445 63.185C320.257 62.5189 321.372 62.1859 322.797 62.1859C323.62 62.1859 324.364 62.2774 325.03 62.4602C325.707 62.6301 326.206 62.8192 326.519 63.0283L325.91 64.5759C325.636 64.406 325.226 64.2429 324.678 64.0861C324.14 63.9162 323.513 63.8315 322.797 63.8315C322.43 63.8315 322.092 63.8706 321.778 63.949C321.465 64.0274 321.19 64.1449 320.955 64.3016C320.72 64.4584 320.532 64.6607 320.386 64.9089C320.257 65.144 320.19 65.4247 320.19 65.7513C320.19 66.1171 320.261 66.4238 320.407 66.672C320.549 66.9203 320.752 67.1422 321.012 67.3381C321.276 67.5208 321.575 67.6907 321.914 67.8474C322.266 68.0041 322.651 68.1609 323.071 68.3176C323.659 68.5527 324.193 68.7877 324.678 69.0228C325.173 69.2579 325.596 69.5386 325.949 69.8652C326.316 70.1918 326.597 70.5836 326.793 71.0406C326.989 71.4847 327.085 72.0265 327.085 72.6666C327.085 73.8551 326.647 74.7691 325.775 75.4092C324.913 76.0492 323.691 76.3691 322.109 76.3691C321.575 76.3691 321.08 76.3299 320.621 76.2515C320.179 76.1863 319.78 76.108 319.427 76.0164C319.075 75.9121 318.768 75.8074 318.505 75.703C318.259 75.5855 318.063 75.4875 317.917 75.4092L318.487 73.842C318.786 74.0119 319.242 74.201 319.858 74.4101C320.471 74.6191 321.223 74.7235 322.109 74.7235ZM332.535 74.7235C334.522 74.7235 335.513 74.0443 335.513 72.6861C335.513 72.2683 335.423 71.9157 335.238 71.6283C335.071 71.328 334.836 71.0734 334.533 70.8643C334.234 70.6424 333.888 70.4529 333.497 70.2962C333.119 70.1394 332.713 69.9827 332.282 69.826C331.787 69.6561 331.317 69.467 330.871 69.2579C330.426 69.036 330.042 68.7813 329.714 68.4939C329.39 68.1936 329.126 67.841 328.93 67.436C328.749 67.031 328.656 66.5413 328.656 65.9668C328.656 64.7782 329.062 63.8511 329.871 63.185C330.683 62.5189 331.798 62.1859 333.222 62.1859C334.045 62.1859 334.79 62.2774 335.456 62.4602C336.136 62.6301 336.631 62.8192 336.944 63.0283L336.335 64.5759C336.061 64.406 335.651 64.2429 335.103 64.0861C334.569 63.9162 333.942 63.8315 333.222 63.8315C332.855 63.8315 332.517 63.8706 332.204 63.949C331.89 64.0274 331.616 64.1449 331.381 64.3016C331.146 64.4584 330.957 64.6607 330.811 64.9089C330.683 65.144 330.615 65.4247 330.615 65.7513C330.615 66.1171 330.69 66.4238 330.832 66.672C330.975 66.9203 331.178 67.1422 331.438 67.3381C331.701 67.5208 332.001 67.6907 332.339 67.8474C332.692 68.0041 333.08 68.1609 333.497 68.3176C334.084 68.5527 334.619 68.7877 335.103 69.0228C335.598 69.2579 336.022 69.5386 336.375 69.8652C336.741 70.1918 337.023 70.5836 337.219 71.0406C337.415 71.4847 337.511 72.0265 337.511 72.6666C337.511 73.8551 337.076 74.7691 336.2 75.4092C335.338 76.0492 334.116 76.3691 332.535 76.3691C332.001 76.3691 331.506 76.3299 331.046 76.2515C330.604 76.1863 330.205 76.108 329.853 76.0164C329.5 75.9121 329.194 75.8074 328.93 75.703C328.685 75.5855 328.489 75.4875 328.343 75.4092L328.912 73.842C329.212 74.0119 329.671 74.201 330.284 74.4101C330.896 74.6191 331.648 74.7235 332.535 74.7235ZM339.26 69.2775C339.26 68.1153 339.431 67.0898 339.769 66.2019C340.122 65.3139 340.592 64.5759 341.179 63.9882C341.781 63.3873 342.472 62.9367 343.256 62.6365C344.054 62.3362 344.894 62.1859 345.785 62.1859C346.657 62.1859 347.48 62.3362 348.253 62.6365C349.037 62.9367 349.721 63.3873 350.308 63.9882C350.896 64.5759 351.359 65.3139 351.701 66.2019C352.054 67.0898 352.228 68.1153 352.228 69.2775C352.228 70.4397 352.054 71.4651 351.701 72.3531C351.359 73.2411 350.896 73.9855 350.308 74.5864C349.721 75.1741 349.037 75.6182 348.253 75.9185C347.48 76.2188 346.657 76.3691 345.785 76.3691C344.894 76.3691 344.054 76.2188 343.256 75.9185C342.472 75.6182 341.781 75.1741 341.179 74.5864C340.592 73.9855 340.122 73.2411 339.769 72.3531C339.431 71.4651 339.26 70.4397 339.26 69.2775ZM341.258 69.2775C341.258 70.1003 341.365 70.8511 341.571 71.5303C341.781 72.1964 342.073 72.7645 342.455 73.2347C342.846 73.7048 343.317 74.0706 343.865 74.3317C344.424 74.58 345.051 74.7039 345.746 74.7039C346.437 74.7039 347.056 74.58 347.605 74.3317C348.153 74.0706 348.616 73.7048 348.998 73.2347C349.389 72.7645 349.689 72.1964 349.899 71.5303C350.105 70.8511 350.212 70.1003 350.212 69.2775C350.212 68.4547 350.105 67.7103 349.899 67.0442C349.689 66.365 349.389 65.7905 348.998 65.3203C348.616 64.8501 348.153 64.4911 347.605 64.2429C347.056 63.9818 346.437 63.8511 345.746 63.8511C345.051 63.8511 344.424 63.9818 343.865 64.2429C343.317 64.4911 342.846 64.8501 342.455 65.3203C342.073 65.7905 341.781 66.365 341.571 67.0442C341.365 67.7103 341.258 68.4547 341.258 69.2775ZM360.894 76.3691C359.939 76.3691 359.07 76.2123 358.287 75.8989C357.503 75.5855 356.834 75.1285 356.271 74.5276C355.708 73.9267 355.27 73.1891 354.957 72.3139C354.657 71.426 354.508 70.4137 354.508 69.2775C354.508 68.1413 354.679 67.1358 355.017 66.2606C355.37 65.3727 355.84 64.6282 356.428 64.0274C357.015 63.4265 357.699 62.9695 358.483 62.6561C359.266 62.3426 360.103 62.1859 360.99 62.1859C361.553 62.1859 362.055 62.2251 362.5 62.3034C362.956 62.3818 363.348 62.4734 363.676 62.5777C364.014 62.6821 364.288 62.7868 364.499 62.8911C364.709 62.9955 364.851 63.0739 364.93 63.1262L364.381 64.6934C364.264 64.6151 364.093 64.5303 363.872 64.4388C363.651 64.3472 363.394 64.256 363.106 64.1645C362.832 64.073 362.525 64.0014 362.187 63.949C361.859 63.8838 361.528 63.8511 361.186 63.8511C360.47 63.8511 359.822 63.975 359.248 64.2233C358.675 64.4715 358.184 64.8306 357.777 65.3007C357.375 65.7709 357.062 66.3454 356.837 67.0246C356.631 67.6907 356.524 68.4415 356.524 69.2775C356.524 70.0871 356.616 70.8251 356.798 71.4912C356.994 72.1572 357.282 72.7317 357.66 73.2151C358.041 73.6852 358.511 74.051 359.07 74.3121C359.647 74.5732 360.313 74.7039 361.069 74.7039C361.945 74.7039 362.671 74.6124 363.245 74.4297C363.818 74.2469 364.249 74.0834 364.538 73.9399L365.026 75.5071C364.937 75.5723 364.773 75.6574 364.538 75.7618C364.303 75.8533 364.007 75.9445 363.654 76.036C363.302 76.1276 362.892 76.2059 362.422 76.2711C361.952 76.3363 361.443 76.3691 360.894 76.3691ZM367.206 62.4994H369.104V76.0752H367.206V62.4994ZM381.535 76.0752C381.314 75.4875 381.104 74.913 380.908 74.3513C380.712 73.7768 380.509 73.1955 380.302 72.6078H374.151L372.915 76.0752H370.938C371.458 74.6387 371.95 73.313 372.406 72.0984C372.862 70.8707 373.307 69.7085 373.738 68.6114C374.183 67.5144 374.621 66.4697 375.052 65.477C375.483 64.4715 375.932 63.4789 376.402 62.4994H378.148C378.618 63.4789 379.066 64.4715 379.497 65.477C379.928 66.4697 380.359 67.5144 380.79 68.6114C381.236 69.7085 381.684 70.8707 382.144 72.0984C382.6 73.313 383.088 74.6387 383.611 76.0752H381.535ZM379.754 71.0406C379.334 69.9044 378.917 68.8073 378.5 67.7495C378.094 66.6784 377.67 65.6533 377.225 64.6738C376.769 65.6533 376.331 66.6784 375.914 67.7495C375.508 68.8073 375.102 69.9044 374.7 71.0406H379.754ZM393.264 62.4994V64.1449H388.993V76.0752H387.091V64.1449H382.821V62.4994H393.264ZM395.269 62.4994H397.168V76.0752H395.269V62.4994ZM399.981 69.2775C399.981 68.1153 400.152 67.0898 400.491 66.2019C400.843 65.3139 401.314 64.5759 401.901 63.9882C402.503 63.3873 403.194 62.9367 403.978 62.6365C404.776 62.3362 405.616 62.1859 406.507 62.1859C407.379 62.1859 408.202 62.3362 408.975 62.6365C409.759 62.9367 410.442 63.3873 411.03 63.9882C411.618 64.5759 412.081 65.3139 412.423 66.2019C412.775 67.0898 412.95 68.1153 412.95 69.2775C412.95 70.4397 412.775 71.4651 412.423 72.3531C412.081 73.2411 411.618 73.9855 411.03 74.5864C410.442 75.1741 409.759 75.6182 408.975 75.9185C408.202 76.2188 407.379 76.3691 406.507 76.3691C405.616 76.3691 404.776 76.2188 403.978 75.9185C403.194 75.6182 402.503 75.1741 401.901 74.5864C401.314 73.9855 400.843 73.2411 400.491 72.3531C400.152 71.4651 399.981 70.4397 399.981 69.2775ZM401.98 69.2775C401.98 70.1003 402.083 70.8511 402.293 71.5303C402.503 72.1964 402.795 72.7645 403.176 73.2347C403.568 73.7048 404.038 74.0706 404.587 74.3317C405.146 74.58 405.773 74.7039 406.468 74.7039C407.158 74.7039 407.778 74.58 408.327 74.3317C408.875 74.0706 409.338 73.7048 409.719 73.2347C410.111 72.7645 410.41 72.1964 410.621 71.5303C410.827 70.8511 410.934 70.1003 410.934 69.2775C410.934 68.4547 410.827 67.7103 410.621 67.0442C410.41 66.365 410.111 65.7905 409.719 65.3203C409.338 64.8501 408.875 64.4911 408.327 64.2429C407.778 63.9818 407.158 63.8511 406.468 63.8511C405.773 63.8511 405.146 63.9818 404.587 64.2429C404.038 64.4911 403.568 64.8501 403.176 65.3203C402.795 65.7905 402.503 66.365 402.293 67.0442C402.083 67.7103 401.98 68.4547 401.98 69.2775ZM425.082 76.0752C424.797 75.5919 424.462 75.0501 424.084 74.4492C423.717 73.8484 423.318 73.2282 422.887 72.5882C422.456 71.9353 422.008 71.2757 421.538 70.6096C421.078 69.9435 420.622 69.3035 420.166 68.6898C419.707 68.0629 419.265 67.4752 418.834 66.9267C418.403 66.3782 418.004 65.8948 417.637 65.477V76.0752H415.778V62.4994H417.285C417.901 63.1522 418.553 63.9162 419.244 64.7914C419.949 65.6533 420.644 66.5481 421.32 67.4752C422.015 68.3895 422.659 69.2907 423.261 70.1786C423.874 71.0666 424.391 71.857 424.807 72.549V62.4994H426.67V76.0752H425.082ZM434.015 69.2775C434.015 68.1153 434.186 67.0898 434.524 66.2019C434.877 65.3139 435.347 64.5759 435.934 63.9882C436.536 63.3873 437.227 62.9367 438.011 62.6365C438.809 62.3362 439.649 62.1859 440.54 62.1859C441.412 62.1859 442.235 62.3362 443.008 62.6365C443.792 62.9367 444.476 63.3873 445.063 63.9882C445.651 64.5759 446.114 65.3139 446.456 66.2019C446.809 67.0898 446.983 68.1153 446.983 69.2775C446.983 70.4397 446.809 71.4651 446.456 72.3531C446.114 73.2411 445.651 73.9855 445.063 74.5864C444.476 75.1741 443.792 75.6182 443.008 75.9185C442.235 76.2188 441.412 76.3691 440.54 76.3691C439.649 76.3691 438.809 76.2188 438.011 75.9185C437.227 75.6182 436.536 75.1741 435.934 74.5864C435.347 73.9855 434.877 73.2411 434.524 72.3531C434.186 71.4651 434.015 70.4397 434.015 69.2775ZM436.013 69.2775C436.013 70.1003 436.12 70.8511 436.326 71.5303C436.536 72.1964 436.828 72.7645 437.21 73.2347C437.601 73.7048 438.071 74.0706 438.62 74.3317C439.179 74.58 439.806 74.7039 440.501 74.7039C441.192 74.7039 441.811 74.58 442.36 74.3317C442.908 74.0706 443.371 73.7048 443.753 73.2347C444.144 72.7645 444.444 72.1964 444.654 71.5303C444.86 70.8511 444.967 70.1003 444.967 69.2775C444.967 68.4547 444.86 67.7103 444.654 67.0442C444.444 66.365 444.144 65.7905 443.753 65.3203C443.371 64.8501 442.908 64.4911 442.36 64.2429C441.811 63.9818 441.192 63.8511 440.501 63.8511C439.806 63.8511 439.179 63.9818 438.62 64.2429C438.071 64.4911 437.601 64.8501 437.21 65.3203C436.828 65.7905 436.536 66.365 436.326 67.0442C436.12 67.7103 436.013 68.4547 436.013 69.2775ZM449.811 76.0752V62.4994H458V64.1253H451.71V68.2196H457.295V69.826H451.71V76.0752H449.811Z" fill="black"/>
<path d="M191.531 84.9388C191.766 85.3698 192.034 85.9051 192.334 86.5452C192.647 87.1721 192.967 87.8577 193.294 88.6021C193.633 89.3334 193.966 90.0846 194.293 90.855C194.619 91.6254 194.926 92.3502 195.214 93.0295C195.501 92.3502 195.808 91.6254 196.134 90.855C196.461 90.0846 196.787 89.3334 197.114 88.6021C197.453 87.8577 197.773 87.1721 198.074 86.5452C198.387 85.9051 198.661 85.3698 198.897 84.9388H201.678C201.809 85.8399 201.927 86.8522 202.031 87.9753C202.148 89.0855 202.246 90.2477 202.325 91.4623C202.416 92.6637 202.495 93.8718 202.56 95.0864C202.638 96.301 202.703 97.4436 202.756 98.5147H199.778C199.739 97.1957 199.687 95.7589 199.621 94.2049C199.556 92.6508 199.458 91.0837 199.327 89.5033C199.092 90.0518 198.831 90.6591 198.544 91.3251C198.256 91.9912 197.969 92.6573 197.682 93.3233C197.408 93.9894 197.14 94.6294 196.879 95.2431C196.618 95.844 196.395 96.3598 196.213 96.7907H194.077C193.895 96.3598 193.672 95.844 193.411 95.2431C193.15 94.6294 192.876 93.9894 192.589 93.3233C192.314 92.6573 192.034 91.9912 191.746 91.3251C191.459 90.6591 191.198 90.0518 190.963 89.5033C190.832 91.0837 190.734 92.6508 190.669 94.2049C190.604 95.7589 190.551 97.1957 190.512 98.5147H187.534C187.587 97.4436 187.645 96.301 187.711 95.0864C187.789 93.8718 187.867 92.6637 187.946 91.4623C188.037 90.2477 188.135 89.0855 188.24 87.9753C188.357 86.8522 188.481 85.8399 188.612 84.9388H191.531ZM205.507 98.5147V84.9388H214.675V87.5051H208.563V90.1693H213.99V92.6768H208.563V95.9484H215.126V98.5147H205.507ZM227.457 84.9388V87.5443H223.363V98.5147H220.307V87.5443H216.212V84.9388H227.457ZM236.904 98.5147C236.76 98.0445 236.597 97.5612 236.414 97.065C236.244 96.5688 236.074 96.0723 235.904 95.5762H230.615C230.446 96.0723 230.269 96.5688 230.086 97.065C229.917 97.5612 229.76 98.0445 229.616 98.5147H226.443C226.952 97.0518 227.435 95.7001 227.892 94.4595C228.35 93.219 228.793 92.05 229.224 90.9529C229.668 89.8559 230.099 88.8176 230.517 87.8381C230.948 86.8454 231.392 85.8791 231.849 84.9388H234.768C235.212 85.8791 235.65 86.8454 236.081 87.8381C236.512 88.8176 236.943 89.8559 237.374 90.9529C237.818 92.05 238.268 93.219 238.725 94.4595C239.183 95.7001 239.666 97.0518 240.175 98.5147H236.904ZM233.24 88.0144C233.175 88.2103 233.077 88.4782 232.946 88.8176C232.816 89.1571 232.666 89.5489 232.496 89.993C232.326 90.4372 232.137 90.9269 231.928 91.4623C231.732 91.9976 231.53 92.5593 231.32 93.147H235.18C234.971 92.5593 234.768 91.9976 234.572 91.4623C234.376 90.9269 234.187 90.4372 234.004 89.993C233.835 89.5489 233.684 89.1571 233.554 88.8176C233.423 88.4782 233.319 88.2103 233.24 88.0144ZM246.458 98.691C245.713 98.691 244.969 98.665 244.225 98.6126C243.493 98.5734 242.729 98.4691 241.933 98.2992V85.1347C242.559 85.0172 243.245 84.9324 243.989 84.88C244.734 84.8149 245.426 84.7821 246.066 84.7821C246.928 84.7821 247.718 84.8473 248.436 84.978C249.168 85.0955 249.794 85.3046 250.317 85.6049C250.84 85.9051 251.244 86.3037 251.532 86.7998C251.832 87.2832 251.982 87.8837 251.982 88.6021C251.982 89.686 251.46 90.5415 250.415 91.1684C251.277 91.495 251.865 91.9388 252.178 92.5005C252.492 93.0622 252.648 93.6955 252.648 94.4008C252.648 95.8244 252.126 96.8951 251.081 97.6135C250.049 98.3319 248.508 98.691 246.458 98.691ZM244.91 92.5985V96.1051C245.132 96.1311 245.374 96.1507 245.635 96.1639C245.896 96.177 246.184 96.1835 246.497 96.1835C247.411 96.1835 248.149 96.0527 248.711 95.7917C249.272 95.5306 249.553 95.0472 249.553 94.342C249.553 93.7151 249.318 93.271 248.848 93.0099C248.378 92.7356 247.705 92.5985 246.83 92.5985H244.91ZM244.91 90.2673H246.399C247.339 90.2673 248.012 90.1497 248.417 89.9147C248.822 89.6664 249.024 89.2746 249.024 88.7393C249.024 88.1907 248.815 87.8054 248.397 87.5835C247.979 87.3616 247.365 87.2504 246.556 87.2504C246.295 87.2504 246.014 87.2568 245.713 87.27C245.413 87.27 245.145 87.2832 244.91 87.3092V90.2673ZM257.661 91.7169C257.661 92.383 257.739 92.9839 257.896 93.5192C258.066 94.0546 258.301 94.5183 258.601 94.9101C258.915 95.2887 259.293 95.5826 259.737 95.7917C260.181 96.0007 260.691 96.1051 261.265 96.1051C261.827 96.1051 262.33 96.0007 262.774 95.7917C263.231 95.5826 263.61 95.2887 263.91 94.9101C264.223 94.5183 264.458 94.0546 264.615 93.5192C264.785 92.9839 264.87 92.383 264.87 91.7169C264.87 91.0509 264.785 90.45 264.615 89.9147C264.458 89.3661 264.223 88.9024 263.91 88.5238C263.61 88.132 263.231 87.8317 262.774 87.6226C262.33 87.4136 261.827 87.3092 261.265 87.3092C260.691 87.3092 260.181 87.4203 259.737 87.6422C259.293 87.8513 258.915 88.1516 258.601 88.5434C258.301 88.922 258.066 89.3857 257.896 89.9343C257.739 90.4696 257.661 91.0641 257.661 91.7169ZM268.024 91.7169C268.024 92.8792 267.848 93.9046 267.495 94.7926C267.156 95.6677 266.685 96.4054 266.084 97.0062C265.484 97.5939 264.766 98.0381 263.93 98.3384C263.107 98.6386 262.219 98.7889 261.265 98.7889C260.338 98.7889 259.463 98.6386 258.64 98.3384C257.817 98.0381 257.099 97.5939 256.485 97.0062C255.872 96.4054 255.388 95.6677 255.036 94.7926C254.683 93.9046 254.507 92.8792 254.507 91.7169C254.507 90.5547 254.689 89.536 255.055 88.6609C255.421 87.7729 255.911 87.0285 256.525 86.4276C257.151 85.8268 257.87 85.3762 258.679 85.0759C259.502 84.7757 260.364 84.6254 261.265 84.6254C262.192 84.6254 263.068 84.7757 263.89 85.0759C264.713 85.3762 265.432 85.8268 266.045 86.4276C266.659 87.0285 267.142 87.7729 267.495 88.6609C267.848 89.536 268.024 90.5547 268.024 91.7169ZM279.641 95.8896V98.5147H270.571V84.9388H273.627V95.8896H279.641ZM281.61 84.9388H284.666V98.5147H281.61V84.9388ZM293.999 98.7889C291.792 98.7889 290.107 98.1752 288.945 96.9475C287.795 95.7197 287.221 93.9762 287.221 91.7169C287.221 90.5939 287.397 89.5948 287.75 88.7197C288.102 87.8317 288.585 87.0873 289.199 86.4864C289.813 85.8727 290.544 85.409 291.393 85.0955C292.242 84.7821 293.163 84.6254 294.155 84.6254C294.73 84.6254 295.253 84.671 295.723 84.7625C296.193 84.8409 296.604 84.9388 296.957 85.0563C297.309 85.1607 297.603 85.2718 297.838 85.3894C298.073 85.5069 298.243 85.5985 298.348 85.6636L297.466 88.132C297.048 87.9101 296.558 87.7206 295.997 87.5639C295.448 87.4071 294.822 87.3288 294.116 87.3288C293.646 87.3288 293.182 87.4071 292.725 87.5639C292.281 87.7206 291.883 87.9752 291.53 88.3279C291.191 88.6673 290.916 89.1115 290.708 89.66C290.499 90.2085 290.394 90.8746 290.394 91.6582C290.394 92.285 290.459 92.8728 290.59 93.4213C290.734 93.9566 290.956 94.4204 291.256 94.8122C291.57 95.204 291.974 95.5174 292.471 95.7525C292.967 95.9744 293.568 96.0855 294.273 96.0855C294.717 96.0855 295.115 96.0595 295.468 96.0071C295.821 95.9548 296.134 95.896 296.408 95.8308C296.683 95.7525 296.924 95.6677 297.133 95.5762C297.342 95.4846 297.531 95.3999 297.701 95.3215L298.544 97.7702C298.113 98.0313 297.505 98.2664 296.722 98.4755C295.938 98.6846 295.03 98.7889 293.999 98.7889ZM314.307 98.5147C314.163 98.0445 314 97.5612 313.817 97.065C313.648 96.5688 313.478 96.0723 313.308 95.5762H308.019C307.849 96.0723 307.673 96.5688 307.49 97.065C307.32 97.5612 307.163 98.0445 307.02 98.5147H303.846C304.355 97.0518 304.838 95.7001 305.296 94.4595C305.753 93.219 306.197 92.05 306.628 90.9529C307.072 89.8559 307.503 88.8176 307.921 87.8381C308.352 86.8454 308.796 85.8791 309.253 84.9388H312.172C312.616 85.8791 313.053 86.8454 313.484 87.8381C313.915 88.8176 314.346 89.8559 314.777 90.9529C315.221 92.05 315.672 93.219 316.129 94.4595C316.586 95.7001 317.069 97.0518 317.579 98.5147H314.307ZM310.644 88.0144C310.578 88.2103 310.48 88.4782 310.35 88.8176C310.219 89.1571 310.069 89.5489 309.899 89.993C309.73 90.4372 309.54 90.9269 309.331 91.4623C309.135 91.9976 308.933 92.5593 308.724 93.147H312.583C312.374 92.5593 312.172 91.9976 311.976 91.4623C311.78 90.9269 311.591 90.4372 311.408 89.993C311.238 89.5489 311.088 89.1571 310.957 88.8176C310.827 88.4782 310.722 88.2103 310.644 88.0144ZM328.446 98.5147C327.57 96.9606 326.622 95.4259 325.603 93.911C324.585 92.3962 323.502 90.9661 322.352 89.6208V98.5147H319.335V84.9388H321.824C322.255 85.3698 322.733 85.8987 323.253 86.5256C323.776 87.1525 324.303 87.8249 324.841 88.5434C325.39 89.2486 325.931 89.9866 326.465 90.757C327.003 91.5146 327.505 92.2459 327.976 92.9511V84.9388H331.01V98.5147H328.446ZM337.201 96.0267C337.343 96.0399 337.507 96.0527 337.689 96.0659C337.885 96.0659 338.113 96.0659 338.376 96.0659C339.904 96.0659 341.033 95.6805 341.763 94.9101C342.508 94.1397 342.882 93.0751 342.882 91.7169C342.882 90.2933 342.529 89.2158 341.824 88.4846C341.119 87.7533 340 87.3876 338.472 87.3876C338.262 87.3876 338.048 87.394 337.828 87.4071C337.603 87.4071 337.397 87.4203 337.201 87.4463V96.0267ZM346.034 91.7169C346.034 92.8923 345.852 93.9174 345.486 94.7926C345.119 95.6677 344.599 96.3925 343.918 96.9671C343.252 97.5416 342.437 97.9726 341.471 98.26C340.503 98.5474 339.42 98.691 338.219 98.691C337.671 98.691 337.03 98.665 336.3 98.6126C335.566 98.5734 334.85 98.4819 334.145 98.3384V85.1151C334.85 84.9844 335.58 84.8996 336.339 84.8604C337.108 84.8081 337.767 84.7821 338.316 84.7821C339.477 84.7821 340.531 84.9128 341.471 85.1739C342.422 85.435 343.238 85.8464 343.918 86.4081C344.599 86.9698 345.119 87.6878 345.486 88.563C345.852 89.4381 346.034 90.4892 346.034 91.7169ZM357.82 98.691C357.076 98.691 356.331 98.665 355.587 98.6126C354.853 98.5734 354.091 98.4691 353.293 98.2992V85.1347C353.92 85.0172 354.607 84.9324 355.352 84.88C356.096 84.8149 356.787 84.7821 357.428 84.7821C358.29 84.7821 359.077 84.8473 359.797 84.978C360.527 85.0955 361.154 85.3046 361.678 85.6049C362.201 85.9051 362.604 86.3037 362.892 86.7998C363.191 87.2832 363.344 87.8837 363.344 88.6021C363.344 89.686 362.821 90.5415 361.777 91.1684C362.639 91.495 363.227 91.9388 363.54 92.5005C363.854 93.0622 364.011 93.6955 364.011 94.4008C364.011 95.8244 363.487 96.8951 362.443 97.6135C361.41 98.3319 359.868 98.691 357.82 98.691ZM356.271 92.5985V96.1051C356.492 96.1311 356.734 96.1507 356.997 96.1639C357.257 96.177 357.546 96.1835 357.859 96.1835C358.771 96.1835 359.508 96.0527 360.071 95.7917C360.634 95.5306 360.915 95.0472 360.915 94.342C360.915 93.7151 360.68 93.271 360.21 93.0099C359.74 92.7356 359.067 92.5985 358.191 92.5985H356.271ZM356.271 90.2673H357.76C358.7 90.2673 359.373 90.1497 359.779 89.9147C360.182 89.6664 360.385 89.2746 360.385 88.7393C360.385 88.1907 360.174 87.8054 359.758 87.5835C359.341 87.3616 358.725 87.2504 357.916 87.2504C357.656 87.2504 357.375 87.2568 357.076 87.27C356.773 87.27 356.506 87.2832 356.271 87.3092V90.2673ZM375.355 98.5147C375.209 98.0445 375.045 97.5612 374.863 97.065C374.692 96.5688 374.525 96.0723 374.354 95.5762H369.065C368.894 96.0723 368.719 96.5688 368.538 97.065C368.367 97.5612 368.21 98.0445 368.067 98.5147H364.894C365.403 97.0518 365.884 95.7001 366.344 94.4595C366.799 93.219 367.245 92.05 367.676 90.9529C368.117 89.8559 368.548 88.8176 368.969 87.8381C369.4 86.8454 369.841 85.8791 370.301 84.9388H373.218C373.663 85.8791 374.101 86.8454 374.532 87.8381C374.963 88.8176 375.394 89.8559 375.825 90.9529C376.267 92.05 376.719 93.219 377.175 94.4595C377.631 95.7001 378.115 97.0518 378.625 98.5147H375.355ZM371.69 88.0144C371.626 88.2103 371.526 88.4782 371.398 88.8176C371.266 89.1571 371.116 89.5489 370.945 89.993C370.774 90.4372 370.586 90.9269 370.379 91.4623C370.183 91.9976 369.98 92.5593 369.77 93.147H373.631C373.421 92.5593 373.218 91.9976 373.022 91.4623C372.826 90.9269 372.637 90.4372 372.456 89.993C372.285 89.5489 372.135 89.1571 372.003 88.8176C371.871 88.4782 371.768 88.2103 371.69 88.0144ZM384.359 84.7821C386.397 84.7821 387.957 85.1479 389.039 85.8791C390.126 86.5975 390.667 87.7206 390.667 89.2486C390.667 90.2021 390.446 90.9789 390.001 91.5798C389.57 92.1675 388.943 92.6313 388.12 92.9707C388.395 93.3101 388.683 93.7019 388.982 94.1461C389.282 94.5771 389.577 95.0341 389.862 95.5174C390.165 95.9876 390.45 96.4837 390.724 97.0062C390.998 97.5156 391.255 98.0185 391.49 98.5147H388.06C387.814 98.0705 387.558 97.6199 387.298 97.1629C387.048 96.706 386.788 96.2618 386.514 95.8308C386.254 95.3999 385.99 94.9949 385.73 94.6163C385.47 94.2245 385.207 93.8718 384.947 93.5584H383.437V98.5147H380.381V85.1347C381.047 85.004 381.734 84.9128 382.439 84.8604C383.159 84.8081 383.796 84.7821 384.359 84.7821ZM384.534 87.3876C384.313 87.3876 384.11 87.394 383.928 87.4071C383.757 87.4203 383.593 87.4331 383.437 87.4463V91.1292H384.299C385.449 91.1292 386.272 90.9857 386.767 90.6983C387.266 90.4108 387.511 89.9211 387.511 89.229C387.511 88.5629 387.258 88.0928 386.749 87.8185C386.254 87.5311 385.513 87.3876 384.534 87.3876ZM393.449 84.9388H396.505V98.5147H393.449V84.9388ZM408.736 98.5147C408.594 98.0445 408.43 97.5612 408.248 97.065C408.077 96.5688 407.906 96.0723 407.739 95.5762H402.45C402.279 96.0723 402.104 96.5688 401.919 97.065C401.752 97.5612 401.595 98.0445 401.449 98.5147H398.275C398.785 97.0518 399.269 95.7001 399.725 94.4595C400.184 93.219 400.626 92.05 401.057 90.9529C401.502 89.8559 401.933 88.8176 402.35 87.8381C402.781 86.8454 403.226 85.8791 403.682 84.9388H406.603C407.044 85.8791 407.482 86.8454 407.913 87.8381C408.344 88.8176 408.775 89.8559 409.206 90.9529C409.652 92.05 410.1 93.219 410.56 94.4595C411.016 95.7001 411.5 97.0518 412.01 98.5147H408.736ZM405.075 88.0144C405.007 88.2103 404.911 88.4782 404.779 88.8176C404.651 89.1571 404.498 89.5489 404.33 89.993C404.159 90.4372 403.971 90.9269 403.76 91.4623C403.564 91.9976 403.361 92.5593 403.155 93.147H407.012C406.806 92.5593 406.603 91.9976 406.407 91.4623C406.211 90.9269 406.022 90.4372 405.837 89.993C405.67 89.5489 405.516 89.1571 405.388 88.8176C405.256 88.4782 405.153 88.2103 405.075 88.0144ZM422.228 84.9388V87.5443H418.132V98.5147H415.076V87.5443H410.984V84.9388H422.228ZM428.169 84.7821C430.207 84.7821 431.767 85.1479 432.85 85.8791C433.936 86.5975 434.477 87.7206 434.477 89.2486C434.477 90.2021 434.253 90.9789 433.811 91.5798C433.38 92.1675 432.754 92.6313 431.931 92.9707C432.205 93.3101 432.49 93.7019 432.793 94.1461C433.092 94.5771 433.388 95.0341 433.673 95.5174C433.975 95.9876 434.26 96.4837 434.534 97.0062C434.809 97.5156 435.065 98.0185 435.3 98.5147H431.87C431.624 98.0705 431.368 97.6199 431.108 97.1629C430.859 96.706 430.599 96.2618 430.324 95.8308C430.061 95.3999 429.801 94.9949 429.541 94.6163C429.277 94.2245 429.017 93.8718 428.757 93.5584H427.247V98.5147H424.191V85.1347C424.857 85.004 425.544 84.9128 426.25 84.8604C426.966 84.8081 427.607 84.7821 428.169 84.7821ZM428.344 87.3876C428.123 87.3876 427.92 87.394 427.739 87.4071C427.568 87.4203 427.404 87.4331 427.247 87.4463V91.1292H428.109C429.259 91.1292 430.082 90.9857 430.577 90.6983C431.076 90.4108 431.322 89.9211 431.322 89.229C431.322 88.5629 431.069 88.0928 430.559 87.8185C430.061 87.5311 429.324 87.3876 428.344 87.3876ZM437.259 84.9388H440.315V98.5147H437.259V84.9388ZM449.647 98.7889C447.439 98.7889 445.754 98.1752 444.593 96.9475C443.443 95.7197 442.869 93.9762 442.869 91.7169C442.869 90.5939 443.044 89.5948 443.396 88.7197C443.749 87.8317 444.233 87.0873 444.846 86.4864C445.462 85.8727 446.192 85.409 447.04 85.0955C447.891 84.7821 448.81 84.6254 449.804 84.6254C450.377 84.6254 450.901 84.671 451.371 84.7625C451.841 84.8409 452.251 84.9388 452.604 85.0563C452.956 85.1607 453.252 85.2718 453.487 85.3894C453.722 85.5069 453.893 85.5985 453.996 85.6636L453.113 88.132C452.696 87.9101 452.208 87.7206 451.645 87.5639C451.097 87.4071 450.47 87.3288 449.765 87.3288C449.295 87.3288 448.832 87.4071 448.372 87.5639C447.93 87.7206 447.532 87.9752 447.179 88.3279C446.841 88.6673 446.566 89.1115 446.356 89.66C446.146 90.2085 446.043 90.8746 446.043 91.6582C446.043 92.285 446.107 92.8728 446.239 93.4213C446.381 93.9566 446.605 94.4204 446.905 94.8122C447.218 95.204 447.624 95.5174 448.119 95.7525C448.614 95.9744 449.216 96.0855 449.922 96.0855C450.367 96.0855 450.762 96.0595 451.115 96.0071C451.467 95.9548 451.781 95.896 452.055 95.8308C452.329 95.7525 452.571 95.6677 452.782 95.5762C452.992 95.4846 453.181 95.3999 453.348 95.3215L454.192 97.7702C453.761 98.0313 453.152 98.2664 452.368 98.4755C451.585 98.6846 450.68 98.7889 449.647 98.7889ZM191.025 119.602C193.011 119.602 194.003 118.923 194.003 117.565C194.003 117.147 193.912 116.795 193.729 116.507C193.559 116.207 193.324 115.952 193.023 115.743C192.723 115.521 192.377 115.332 191.985 115.175C191.607 115.018 191.202 114.862 190.771 114.705C190.274 114.535 189.804 114.346 189.36 114.137C188.916 113.915 188.531 113.66 188.204 113.373C187.878 113.073 187.617 112.72 187.421 112.315C187.238 111.91 187.146 111.42 187.146 110.846C187.146 109.657 187.551 108.73 188.361 108.064C189.171 107.398 190.288 107.065 191.711 107.065C192.534 107.065 193.278 107.156 193.944 107.339C194.623 107.509 195.12 107.698 195.433 107.907L194.826 109.455C194.551 109.285 194.14 109.122 193.592 108.965C193.056 108.795 192.429 108.71 191.711 108.71C191.345 108.71 191.006 108.75 190.692 108.828C190.379 108.906 190.105 109.024 189.869 109.181C189.634 109.337 189.445 109.54 189.301 109.788C189.171 110.023 189.105 110.304 189.105 110.63C189.105 110.996 189.177 111.303 189.321 111.551C189.465 111.799 189.667 112.021 189.928 112.217C190.19 112.4 190.49 112.57 190.829 112.726C191.182 112.883 191.567 113.04 191.985 113.196C192.573 113.432 193.109 113.667 193.592 113.902C194.088 114.137 194.512 114.417 194.865 114.744C195.231 115.071 195.511 115.462 195.707 115.919C195.903 116.364 196.001 116.905 196.001 117.545C196.001 118.734 195.564 119.648 194.689 120.288C193.827 120.928 192.606 121.248 191.025 121.248C190.49 121.248 189.994 121.209 189.536 121.13C189.093 121.065 188.694 120.987 188.341 120.895C187.989 120.791 187.682 120.686 187.421 120.582C187.173 120.464 186.977 120.366 186.833 120.288L187.401 118.721C187.702 118.891 188.159 119.08 188.772 119.289C189.386 119.498 190.137 119.602 191.025 119.602ZM203.352 121.248C202.464 121.248 201.693 121.111 201.04 120.837C200.387 120.562 199.852 120.19 199.434 119.72C199.016 119.237 198.703 118.668 198.494 118.016C198.298 117.363 198.2 116.657 198.2 115.9V107.378H200.1V115.684C200.1 117.043 200.4 118.029 201.001 118.642C201.602 119.256 202.386 119.563 203.352 119.563C203.835 119.563 204.273 119.491 204.665 119.348C205.069 119.191 205.415 118.956 205.703 118.642C205.99 118.329 206.212 117.931 206.369 117.447C206.526 116.951 206.604 116.364 206.604 115.684V107.378H208.504V115.9C208.504 116.657 208.4 117.363 208.191 118.016C207.995 118.668 207.681 119.237 207.25 119.72C206.833 120.19 206.297 120.562 205.644 120.837C205.004 121.111 204.24 121.248 203.352 121.248ZM218.426 115.273C218.635 115.534 218.896 115.88 219.21 116.311C219.536 116.729 219.869 117.199 220.209 117.722C220.548 118.231 220.881 118.766 221.208 119.328C221.547 119.89 221.835 120.432 222.07 120.954H219.993C219.732 120.458 219.445 119.955 219.131 119.446C218.831 118.936 218.524 118.453 218.21 117.996C217.897 117.526 217.584 117.088 217.27 116.683C216.97 116.279 216.696 115.926 216.447 115.626C216.277 115.639 216.101 115.645 215.918 115.645C215.749 115.645 215.572 115.645 215.39 115.645H213.685V120.954H211.785V107.574C212.32 107.443 212.915 107.359 213.568 107.319C214.234 107.267 214.841 107.241 215.39 107.241C217.296 107.241 218.746 107.6 219.738 108.319C220.744 109.037 221.247 110.108 221.247 111.531C221.247 112.432 221.005 113.203 220.522 113.843C220.052 114.483 219.353 114.96 218.426 115.273ZM215.546 108.906C214.737 108.906 214.116 108.926 213.685 108.965V114.078H215.037C215.69 114.078 216.277 114.045 216.8 113.98C217.322 113.915 217.76 113.791 218.113 113.608C218.478 113.425 218.759 113.17 218.955 112.844C219.151 112.504 219.249 112.06 219.249 111.512C219.249 111.002 219.151 110.578 218.955 110.238C218.759 109.899 218.491 109.631 218.152 109.435C217.825 109.239 217.433 109.102 216.976 109.024C216.532 108.945 216.056 108.906 215.546 108.906ZM232.181 114.274H234.082V120.621C233.925 120.673 233.697 120.732 233.396 120.797C233.109 120.863 232.769 120.928 232.377 120.993C231.999 121.058 231.581 121.111 231.123 121.15C230.666 121.202 230.203 121.228 229.733 121.228C228.779 121.228 227.911 121.072 227.127 120.758C226.344 120.445 225.671 119.988 225.109 119.387C224.548 118.786 224.11 118.048 223.797 117.173C223.497 116.298 223.346 115.293 223.346 114.156C223.346 113.02 223.516 112.015 223.856 111.14C224.208 110.252 224.678 109.507 225.266 108.906C225.854 108.305 226.539 107.848 227.323 107.535C228.12 107.222 228.969 107.065 229.87 107.065C230.484 107.065 231.026 107.104 231.496 107.182C231.979 107.261 232.39 107.352 232.73 107.457C233.07 107.561 233.344 107.666 233.553 107.77C233.775 107.874 233.925 107.953 234.003 108.005L233.396 109.592C233.017 109.344 232.514 109.141 231.887 108.985C231.261 108.815 230.621 108.73 229.968 108.73C229.276 108.73 228.642 108.854 228.067 109.102C227.506 109.35 227.023 109.709 226.618 110.18C226.226 110.65 225.919 111.224 225.697 111.904C225.475 112.57 225.364 113.32 225.364 114.156C225.364 114.966 225.456 115.704 225.638 116.37C225.834 117.036 226.122 117.611 226.5 118.094C226.892 118.564 227.369 118.93 227.93 119.191C228.505 119.452 229.178 119.583 229.948 119.583C230.497 119.583 230.96 119.557 231.339 119.504C231.731 119.439 232.012 119.38 232.181 119.328V114.274ZM237.057 120.954V107.378H245.343V109.004H238.957V113.04H244.638V114.627H238.957V119.328H245.833V120.954H237.057ZM247.145 114.156C247.145 112.994 247.315 111.969 247.655 111.081C248.007 110.193 248.477 109.455 249.065 108.867C249.666 108.266 250.358 107.816 251.142 107.515C251.938 107.215 252.78 107.065 253.669 107.065C254.543 107.065 255.366 107.215 256.137 107.515C256.921 107.816 257.606 108.266 258.194 108.867C258.782 109.455 259.245 110.193 259.585 111.081C259.937 111.969 260.114 112.994 260.114 114.156C260.114 115.319 259.937 116.344 259.585 117.232C259.245 118.12 258.782 118.864 258.194 119.465C257.606 120.053 256.921 120.497 256.137 120.797C255.366 121.098 254.543 121.248 253.669 121.248C252.78 121.248 251.938 121.098 251.142 120.797C250.358 120.497 249.666 120.053 249.065 119.465C248.477 118.864 248.007 118.12 247.655 117.232C247.315 116.344 247.145 115.319 247.145 114.156ZM249.143 114.156C249.143 114.979 249.248 115.73 249.457 116.409C249.666 117.075 249.959 117.643 250.338 118.114C250.73 118.584 251.2 118.95 251.749 119.211C252.31 119.459 252.937 119.583 253.63 119.583C254.322 119.583 254.942 119.459 255.491 119.211C256.039 118.95 256.502 118.584 256.881 118.114C257.273 117.643 257.574 117.075 257.783 116.409C257.991 115.73 258.096 114.979 258.096 114.156C258.096 113.334 257.991 112.589 257.783 111.923C257.574 111.244 257.273 110.669 256.881 110.199C256.502 109.729 256.039 109.37 255.491 109.122C254.942 108.861 254.322 108.73 253.63 108.73C252.937 108.73 252.31 108.861 251.749 109.122C251.2 109.37 250.73 109.729 250.338 110.199C249.959 110.669 249.666 111.244 249.457 111.923C249.248 112.589 249.143 113.334 249.143 114.156ZM272.246 120.954C271.959 120.471 271.626 119.929 271.247 119.328C270.882 118.727 270.483 118.107 270.052 117.467C269.621 116.814 269.17 116.155 268.7 115.488C268.243 114.822 267.786 114.182 267.329 113.569C266.872 112.942 266.428 112.354 265.997 111.806C265.566 111.257 265.168 110.774 264.802 110.356V120.954H262.941V107.378H264.449C265.063 108.031 265.716 108.795 266.408 109.67C267.113 110.532 267.806 111.427 268.485 112.354C269.177 113.268 269.824 114.17 270.424 115.058C271.038 115.945 271.554 116.736 271.972 117.428V107.378H273.833V120.954H272.246ZM280.347 119.602C282.332 119.602 283.325 118.923 283.325 117.565C283.325 117.147 283.234 116.795 283.051 116.507C282.881 116.207 282.646 115.952 282.346 115.743C282.045 115.521 281.699 115.332 281.307 115.175C280.929 115.018 280.524 114.862 280.093 114.705C279.597 114.535 279.126 114.346 278.682 114.137C278.238 113.915 277.853 113.66 277.526 113.373C277.2 113.073 276.939 112.72 276.743 112.315C276.56 111.91 276.469 111.42 276.469 110.846C276.469 109.657 276.874 108.73 277.683 108.064C278.493 107.398 279.609 107.065 281.033 107.065C281.856 107.065 282.6 107.156 283.266 107.339C283.946 107.509 284.442 107.698 284.755 107.907L284.148 109.455C283.874 109.285 283.462 109.122 282.914 108.965C282.378 108.795 281.751 108.71 281.033 108.71C280.667 108.71 280.328 108.75 280.014 108.828C279.701 108.906 279.427 109.024 279.192 109.181C278.957 109.337 278.767 109.54 278.623 109.788C278.493 110.023 278.428 110.304 278.428 110.63C278.428 110.996 278.5 111.303 278.643 111.551C278.787 111.799 278.989 112.021 279.25 112.217C279.511 112.4 279.812 112.57 280.152 112.726C280.504 112.883 280.89 113.04 281.307 113.196C281.895 113.432 282.43 113.667 282.914 113.902C283.41 114.137 283.834 114.417 284.187 114.744C284.553 115.071 284.834 115.462 285.029 115.919C285.225 116.364 285.323 116.905 285.323 117.545C285.323 118.734 284.886 119.648 284.011 120.288C283.149 120.928 281.928 121.248 280.347 121.248C279.812 121.248 279.316 121.209 278.859 121.13C278.414 121.065 278.016 120.987 277.664 120.895C277.311 120.791 277.004 120.686 276.743 120.582C276.495 120.464 276.299 120.366 276.155 120.288L276.723 118.721C277.024 118.891 277.481 119.08 278.095 119.289C278.708 119.498 279.459 119.602 280.347 119.602Z" fill="#7F2941"/>
</svg>
