<svg width="32" height="32" viewBox="0 0 32 32" fill="none" xmlns="http://www.w3.org/2000/svg">
<path d="M25.3332 5.3335H6.6665C5.60564 5.3335 4.58822 5.75492 3.83808 6.50507C3.08793 7.25521 2.6665 8.27263 2.6665 9.3335V22.6668C2.6665 23.7277 3.08793 24.7451 3.83808 25.4953C4.58822 26.2454 5.60564 26.6668 6.6665 26.6668H25.3332C26.394 26.6668 27.4115 26.2454 28.1616 25.4953C28.9117 24.7451 29.3332 23.7277 29.3332 22.6668V9.3335C29.3332 8.27263 28.9117 7.25521 28.1616 6.50507C27.4115 5.75492 26.394 5.3335 25.3332 5.3335V5.3335ZM24.7865 8.00016L16.9465 15.8402C16.8226 15.9651 16.6751 16.0643 16.5126 16.132C16.3501 16.1997 16.1759 16.2346 15.9998 16.2346C15.8238 16.2346 15.6495 16.1997 15.4871 16.132C15.3246 16.0643 15.1771 15.9651 15.0532 15.8402L7.21317 8.00016H24.7865ZM26.6665 22.6668C26.6665 23.0205 26.526 23.3596 26.276 23.6096C26.0259 23.8597 25.6868 24.0002 25.3332 24.0002H6.6665C6.31288 24.0002 5.97374 23.8597 5.7237 23.6096C5.47365 23.3596 5.33317 23.0205 5.33317 22.6668V9.88016L13.1732 17.7202C13.9232 18.4692 14.9398 18.89 15.9998 18.89C17.0598 18.89 18.0765 18.4692 18.8265 17.7202L26.6665 9.88016V22.6668Z" fill="#AEC5CE"/>
</svg>
