<svg width="32" height="32" viewBox="0 0 32 32" fill="none" xmlns="http://www.w3.org/2000/svg">
<path d="M19.137 13.5644L18.9715 15.7663H16.8248V23.1418H13.9994V15.7663H12.5688V13.5644H13.9994V11.9133V11.4364C13.9994 11.4364 13.8983 8.99899 16.8248 8.86723C18.2469 8.80365 19.4315 9.12423 19.4315 9.12423L19.1309 11.289C19.1309 11.289 16.8248 10.5743 16.8248 11.9673V13.564H19.137V13.5644Z" fill="#AEC5CE"/>
<path d="M15.9996 32C7.17788 32 0 24.8221 0 15.9996C0 7.17712 7.17788 0 15.9996 0C24.8221 0 32 7.17712 32 15.9996C32 24.8221 24.8221 32 15.9996 32ZM15.9996 2.19806C8.38932 2.19806 2.19806 8.38932 2.19806 15.9996C2.19806 23.6099 8.38932 29.8016 15.9996 29.8016C23.6107 29.8016 29.8016 23.6099 29.8016 15.9996C29.8016 8.38932 23.6107 2.19806 15.9996 2.19806Z" fill="#AEC5CE"/>
</svg>
