<svg width="33" height="32" viewBox="0 0 33 32" fill="none" xmlns="http://www.w3.org/2000/svg">
<path d="M23.149 11.1952C22.9621 10.7138 22.7105 10.3043 22.3037 9.89644C21.8955 9.48931 21.4868 9.23768 21.0042 9.05039C20.5373 8.86999 20.0042 8.74552 19.224 8.71028C18.4423 8.67389 18.1918 8.66623 16.2002 8.66623C14.2086 8.66623 13.9577 8.67428 13.176 8.71028C12.3958 8.74552 11.8631 8.86999 11.3966 9.05039C10.9132 9.23768 10.5049 9.48931 10.0963 9.89644C9.68912 10.304 9.43864 10.7138 9.25173 11.1952C9.07057 11.6621 8.94571 12.1956 8.91048 12.9758C8.87447 13.7579 8.86567 14.0076 8.86567 15.9996C8.86567 17.9916 8.87447 18.2413 8.91048 19.0234C8.94571 19.8048 9.07057 20.3375 9.25173 20.8036C9.43864 21.2862 9.68951 21.6957 10.0963 22.1028C10.5045 22.5107 10.9132 22.7619 11.3966 22.9496C11.8634 23.13 12.3958 23.2545 13.176 23.2905C13.9577 23.3253 14.209 23.3345 16.2002 23.3345C18.1914 23.3345 18.4423 23.3253 19.224 23.2905C20.0042 23.2545 20.5377 23.13 21.0042 22.9496C21.4868 22.7619 21.8951 22.5107 22.3037 22.1028C22.7109 21.6957 22.9621 21.2862 23.149 20.8036C23.3317 20.3371 23.4535 19.8048 23.4895 19.0234C23.5263 18.2413 23.5343 17.9916 23.5343 15.9996C23.5343 14.0076 23.5263 13.7579 23.4895 12.9758C23.4535 12.1956 23.3314 11.6621 23.149 11.1952ZM22.1705 18.9637C22.1375 19.678 22.018 20.0667 21.9169 20.3256C21.7844 20.6681 21.6258 20.9116 21.3685 21.1679C21.1111 21.4249 20.8679 21.5838 20.5255 21.7179C20.2658 21.8182 19.879 21.9366 19.1639 21.9695C18.3902 22.0055 18.1585 22.0124 16.2002 22.0124C14.2411 22.0124 14.009 22.0051 13.2365 21.9695C12.5207 21.9366 12.1338 21.8178 11.8742 21.7179C11.5321 21.5838 11.2885 21.4249 11.0319 21.1679C10.7753 20.9116 10.616 20.6677 10.4827 20.3256C10.3831 20.0667 10.2636 19.6784 10.2299 18.9637C10.1947 18.1896 10.1882 17.9583 10.1882 15.9996C10.1882 14.0417 10.1951 13.8096 10.2299 13.0371C10.2636 12.322 10.3831 11.9333 10.4827 11.6747C10.616 11.3327 10.7746 11.0876 11.0319 10.8317C11.2885 10.5751 11.5325 10.4154 11.8742 10.2829C12.1338 10.1818 12.5207 10.0627 13.2365 10.0301C14.0102 9.99526 14.2411 9.9876 16.2002 9.9876C18.1585 9.9876 18.3906 9.99564 19.1639 10.0301C19.879 10.0627 20.2658 10.1818 20.5255 10.2829C20.8682 10.4154 21.1111 10.5751 21.3685 10.8317C21.6258 11.0876 21.7844 11.3331 21.9169 11.6747C22.018 11.9333 22.1375 12.3216 22.1705 13.0371C22.2049 13.81 22.2122 14.0417 22.2122 15.9996C22.2122 17.9583 22.2049 18.1896 22.1705 18.9637ZM16.2002 12.2347C14.119 12.2347 12.4337 13.9191 12.4337 15.9996C12.4337 18.0801 14.119 19.7661 16.2002 19.7661C18.2807 19.7661 19.9659 18.0801 19.9659 15.9996C19.9659 13.9191 18.2807 12.2347 16.2002 12.2347ZM16.2002 18.4451C14.8493 18.4451 13.7555 17.3501 13.7555 15.9996C13.7555 14.6499 14.849 13.5549 16.2002 13.5549C17.5503 13.5549 18.6441 14.6495 18.6441 15.9996C18.6441 17.3497 17.5503 18.4451 16.2002 18.4451ZM20.9954 12.0857C20.9954 12.571 20.6013 12.9658 20.1149 12.9658C19.6285 12.9658 19.2351 12.571 19.2351 12.0857C19.2351 11.5989 19.6285 11.2044 20.1149 11.2044C20.6013 11.2044 20.9954 11.5993 20.9954 12.0857ZM16.1994 0C7.37693 0 0.200195 7.17712 0.200195 15.9996C0.200195 24.8221 7.37693 32 16.1994 32C25.0227 32 32.2002 24.8221 32.2002 15.9996C32.2002 7.17712 25.0227 0 16.1994 0ZM16.1994 29.8016C8.58952 29.8016 2.39864 23.6099 2.39864 15.9996C2.39864 8.38932 8.58952 2.19806 16.1994 2.19806C23.8101 2.19806 30.0018 8.38932 30.0018 15.9996C30.0018 23.6099 23.8101 29.8016 16.1994 29.8016Z" fill="#AEC5CE"/>
</svg>
