<svg width="33" height="32" viewBox="0 0 33 32" fill="none" xmlns="http://www.w3.org/2000/svg">
<path d="M16.7997 0C7.97732 0 0.800293 7.17741 0.800293 15.9994C0.800293 24.8218 7.97732 32 16.7997 32C25.6221 32 32.8003 24.8218 32.8003 15.9994C32.8003 7.17741 25.6221 0 16.7997 0ZM16.7997 29.8016C9.18952 29.8016 2.99871 23.61 2.99871 15.9994C2.99871 8.38922 9.18952 2.19842 16.7997 2.19842C24.4103 2.19842 30.6019 8.38922 30.6019 15.9994C30.6019 23.61 24.4103 29.8016 16.7997 29.8016Z" fill="#AEC5CE"/>
<path d="M13.4848 13.6455H10.8999V21.9608H13.4848V13.6455Z" fill="#AEC5CE"/>
<path d="M12.2091 10.0396C11.3745 10.0396 10.8318 10.601 10.8318 11.3318C10.8318 12.0465 11.3588 12.6244 12.1753 12.6244C13.0421 12.6244 13.5695 12.0465 13.5695 11.3318C13.5522 10.6006 13.0421 10.0396 12.2091 10.0396Z" fill="#AEC5CE"/>
<path d="M19.7912 13.4575C18.3986 13.4575 17.5652 14.2568 17.2243 14.7999H17.1726L17.0535 13.6452H14.8103C14.8432 14.3924 14.8777 15.2607 14.8777 16.2978V21.9605H17.4626V17.165C17.4626 16.9271 17.479 16.6889 17.548 16.5185C17.7345 16.0428 18.1596 15.5495 18.8739 15.5495C19.8092 15.5495 20.1842 16.281 20.1842 17.3526V21.9605H22.7687V17.0466C22.7683 14.5973 21.4936 13.4575 19.7912 13.4575Z" fill="#AEC5CE"/>
</svg>
