<svg width="32" height="32" viewBox="0 0 32 32" fill="none" xmlns="http://www.w3.org/2000/svg">
<path d="M16.0002 2.6665C13.1712 2.6665 10.4581 3.79031 8.45769 5.7907C6.4573 7.79109 5.3335 10.5042 5.3335 13.3332C5.3335 20.5332 14.7335 28.6665 15.1335 29.0132C15.375 29.2197 15.6824 29.3333 16.0002 29.3333C16.318 29.3333 16.6253 29.2197 16.8668 29.0132C17.3335 28.6665 26.6668 20.5332 26.6668 13.3332C26.6668 10.5042 25.543 7.79109 23.5426 5.7907C21.5422 3.79031 18.8291 2.6665 16.0002 2.6665ZM16.0002 26.1998C13.1602 23.5332 8.00016 17.7865 8.00016 13.3332C8.00016 11.2114 8.84302 9.17661 10.3433 7.67632C11.8436 6.17603 13.8784 5.33317 16.0002 5.33317C18.1219 5.33317 20.1567 6.17603 21.657 7.67632C23.1573 9.17661 24.0002 11.2114 24.0002 13.3332C24.0002 17.7865 18.8402 23.5465 16.0002 26.1998ZM16.0002 7.99984C14.9453 7.99984 13.9142 8.31263 13.0371 8.89867C12.1601 9.4847 11.4765 10.3177 11.0728 11.2922C10.6691 12.2667 10.5635 13.3391 10.7693 14.3737C10.9751 15.4082 11.483 16.3585 12.2289 17.1044C12.9748 17.8503 13.9251 18.3582 14.9597 18.564C15.9942 18.7698 17.0666 18.6642 18.0411 18.2605C19.0157 17.8569 19.8486 17.1733 20.4347 16.2962C21.0207 15.4191 21.3335 14.388 21.3335 13.3332C21.3335 11.9187 20.7716 10.5621 19.7714 9.56193C18.7712 8.56174 17.4146 7.99984 16.0002 7.99984ZM16.0002 15.9998C15.4727 15.9998 14.9572 15.8434 14.5186 15.5504C14.0801 15.2574 13.7383 14.8409 13.5365 14.3537C13.3347 13.8664 13.2818 13.3302 13.3847 12.8129C13.4876 12.2956 13.7416 11.8205 14.1145 11.4476C14.4875 11.0746 14.9626 10.8206 15.4799 10.7177C15.9972 10.6148 16.5334 10.6677 17.0207 10.8695C17.5079 11.0713 17.9244 11.4131 18.2174 11.8517C18.5104 12.2902 18.6668 12.8058 18.6668 13.3332C18.6668 14.0404 18.3859 14.7187 17.8858 15.2188C17.3857 15.7189 16.7074 15.9998 16.0002 15.9998Z" fill="#AEC5CE"/>
</svg>
