<svg width="33" height="32" viewBox="0 0 33 32" fill="none" xmlns="http://www.w3.org/2000/svg">
<path d="M16.5995 0C7.77713 0 0.600098 7.17741 0.600098 15.9994C0.600098 24.8218 7.77713 32 16.5995 32C25.4219 32 32.6001 24.8218 32.6001 15.9994C32.6001 7.17741 25.4219 0 16.5995 0ZM16.5995 29.8016C8.98932 29.8016 2.79852 23.61 2.79852 15.9994C2.79852 8.38922 8.98932 2.19842 16.5995 2.19842C24.2101 2.19842 30.4017 8.38922 30.4017 15.9994C30.4017 23.61 24.2101 29.8016 16.5995 29.8016Z" fill="#AEC5CE"/>
<path d="M22.3462 9.259L8.74073 14.8188C8.74073 14.8188 8.09749 15.0484 8.14728 15.4718C8.19841 15.896 8.72331 16.09 8.72331 16.09L12.1467 17.29C12.1467 17.29 13.1801 20.8195 13.3834 21.4911C13.5868 22.1609 13.75 22.1767 13.75 22.1767C13.9394 22.2624 14.1115 22.1259 14.1115 22.1259L16.3233 20.0259L19.7705 22.7789C20.7029 23.2025 21.0422 22.3199 21.0422 22.3199L23.4645 9.59499C23.4645 8.74739 22.3462 9.259 22.3462 9.259ZM19.9375 21.2965L16.2496 18.3521L15.1052 19.4383L15.3568 17.1273L20.2726 12.553L13.5719 16.4589L10.5996 15.4173L21.9396 10.7829L19.9375 21.2965Z" fill="#AEC5CE"/>
</svg>
