<svg width="33" height="32" viewBox="0 0 33 32" fill="none" xmlns="http://www.w3.org/2000/svg">
<path d="M23.1219 10.8771C22.5823 11.1961 21.9859 11.4286 21.3505 11.5542C20.8415 11.0127 20.1157 10.6733 19.3152 10.6733C17.7748 10.6733 16.5266 11.9216 16.5266 13.462C16.5266 13.6803 16.5507 13.8936 16.5982 14.0966C14.281 13.9813 12.2262 12.871 10.8501 11.1835C10.6095 11.5956 10.4724 12.0751 10.4724 12.5861C10.4724 13.5528 10.9646 14.4069 11.7137 14.9071C11.2561 14.8929 10.8267 14.7669 10.4506 14.5578C10.4498 14.5693 10.4498 14.5819 10.4498 14.5938C10.4498 15.9442 11.4104 17.0722 12.6877 17.3277C12.4526 17.392 12.2071 17.4265 11.9524 17.4265C11.7731 17.4265 11.5985 17.4085 11.4284 17.3763C11.7835 18.4836 12.8122 19.2902 14.0328 19.3124C13.0788 20.0608 11.8765 20.5066 10.5689 20.5066C10.3441 20.5066 10.1224 20.4939 9.90405 20.4671C11.1381 21.258 12.6046 21.7203 14.1795 21.7203C19.3095 21.7203 22.1142 17.4705 22.1142 13.7856C22.1142 13.665 22.1112 13.5443 22.1062 13.4245C22.6508 13.0315 23.1234 12.5405 23.4973 11.9813C22.9971 12.2027 22.4597 12.352 21.8955 12.4195C22.4712 12.0751 22.9136 11.5274 23.1219 10.8771Z" fill="#AEC5CE"/>
<path d="M16.4003 0C7.57778 0 0.399902 7.17712 0.399902 15.9996C0.399902 24.8221 7.57778 32 16.4003 32C25.2228 32 32.4007 24.8221 32.4007 15.9996C32.4007 7.17712 25.2228 0 16.4003 0ZM16.4003 29.8016C8.78999 29.8016 2.59835 23.6099 2.59835 15.9996C2.59835 8.38932 8.78999 2.19806 16.4003 2.19806C24.0106 2.19806 30.2022 8.38932 30.2022 15.9996C30.2022 23.6099 24.0106 29.8016 16.4003 29.8016Z" fill="#AEC5CE"/>
</svg>
