<svg width="32" height="32" viewBox="0 0 32 32" fill="none" xmlns="http://www.w3.org/2000/svg">
<path d="M21.1235 11.3447C17.8105 11.085 14.1896 11.085 10.8781 11.3447C9.84211 11.4711 9.06117 12.1681 8.86124 13.1938C8.62646 14.9855 8.62646 17.0143 8.86047 18.8056C9.06079 19.8313 9.84211 20.528 10.8781 20.6547C14.1896 20.9148 17.8105 20.9144 21.1235 20.6547C22.158 20.5272 22.9382 19.8324 23.1396 18.8056C23.3729 17.0131 23.3729 14.9859 23.1396 13.1938C22.9382 12.1674 22.158 11.4726 21.1235 11.3447ZM15.0104 17.9725V14.0272L18.5218 15.9997L15.0104 17.9725Z" fill="#AEC5CE"/>
<path d="M16 0C7.1775 0 0 7.1775 0 15.9996C0 24.8221 7.1775 32 16 32C24.8225 32 32 24.8221 32 15.9996C32 7.1775 24.8225 0 16 0ZM16 29.8016C8.38932 29.8016 2.19844 23.6099 2.19844 15.9996C2.19844 8.38932 8.38932 2.19844 16 2.19844C23.6099 2.19844 29.8016 8.38932 29.8016 15.9996C29.8016 23.6099 23.6099 29.8016 16 29.8016Z" fill="#AEC5CE"/>
</svg>
